{
  "accessors": [
    {
      "bufferView": 2,
      "componentType": 5126,
      "count": 31654,
      "max": [
        28.962980270385742,
        25.988859176635742,
        172.0
      ],
      "min": [
        -28.962980270385742,
        -26.036619186401367,
        0.01424975972622633
      ],
      "type": "VEC3"
    },
    {
      "bufferView": 2,
      "byteOffset": 379848,
      "componentType": 5126,
      "count": 31654,
      "max": [
        0.9999788999557495,
        0.9999874234199524,
        1.0
      ],
      "min": [
        -0.9999788999557495,
        -0.9999874234199524,
        -1.0
      ],
      "type": "VEC3"
    },
    {
      "bufferView": 1,
      "componentType": 5126,
      "count": 31654,
      "max": [
        4.812154769897461,
        120.65979766845703
      ],
      "min": [
        -8.817178726196289,
        0.001999974250793457
      ],
      "type": "VEC2"
    },
    {
      "bufferView": 0,
      "componentType": 5125,
      "count": 180006,
      "type": "SCALAR"
    }
  ],
  "asset": {
    "extras": {
      "author": "3dmodel (https://sketchfab.com/3dmodelshop)",
      "license": "CC-BY-4.0 (http://creativecommons.org/licenses/by/4.0/)",
      "source": "https://sketchfab.com/3d-models/japanese-girl-in-kimono-5edd5009def74fbf8c6aa5f6e5afd633",
      "title": "Japanese girl in kimono"
    },
    "generator": "Sketchfab-15.44.0",
    "version": "2.0"
  },
  "bufferViews": [
    {
      "buffer": 0,
      "byteLength": 720024,
      "name": "floatBufferViews",
      "target": 34963
    },
    {
      "buffer": 0,
      "byteLength": 253232,
      "byteOffset": 720024,
      "byteStride": 8,
      "name": "floatBufferViews",
      "target": 34962
    },
    {
      "buffer": 0,
      "byteLength": 759696,
      "byteOffset": 973256,
      "byteStride": 12,
      "name": "floatBufferViews",
      "target": 34962
    }
  ],
  "buffers": [
    {
      "byteLength": 1732952,
      "uri": "scene.bin"
    }
  ],
  "extensionsRequired": [
    "KHR_materials_pbrSpecularGlossiness"
  ],
  "extensionsUsed": [
    "KHR_materials_pbrSpecularGlossiness"
  ],
  "images": [
    {
      "uri": "textures/material_diffuse.jpeg"
    }
  ],
  "materials": [
    {
      "doubleSided": true,
      "extensions": {
        "KHR_materials_pbrSpecularGlossiness": {
          "diffuseFactor": [
            1.0,
            1.0,
            1.0,
            1.0
          ],
          "diffuseTexture": {
            "index": 0
          },
          "glossinessFactor": 0.5321890504809158,
          "specularFactor": [
            0.0,
            0.0,
            0.0
          ]
        }
      },
      "name": "material"
    }
  ],
  "meshes": [
    {
      "name": "defaultMaterial",
      "primitives": [
        {
          "attributes": {
            "NORMAL": 1,
            "POSITION": 0,
            "TEXCOORD_0": 2
          },
          "indices": 3,
          "material": 0,
          "mode": 4
        }
      ]
    }
  ],
  "nodes": [
    {
      "children": [
        1
      ],
      "matrix": [
        0.8548867106437683,
        0.0,
        0.0,
        0.0,
        0.0,
        1.898229819205551e-16,
        -0.8548867106437683,
        0.0,
        0.0,
        0.8548867106437683,
        1.898229819205551e-16,
        0.0,
        0.0,
        0.0,
        0.0,
        1.0
      ],
      "name": "Sketchfab_model"
    },
    {
      "children": [
        2
      ],
      "matrix": [
        1.0,
        0.0,
        0.0,
        0.0,
        0.0,
        -4.371139006309477e-08,
        0.999999999999999,
        0.0,
        0.0,
        -0.999999999999999,
        -4.371139006309477e-08,
        0.0,
        0.0,
        0.0,
        0.0,
        1.0
      ],
      "name": "Collada visual scene group"
    },
    {
      "children": [
        3
      ],
      "matrix": [
        0.0100000007,
        0.0,
        0.0,
        0.0,
        0.0,
        0.0,
        -0.0100000007,
        0.0,
        0.0,
        0.0100000007,
        0.0,
        0.0,
        0.0,
        0.0,
        0.0,
        1.0
      ],
      "name": "ID4"
    },
    {
      "mesh": 0,
      "name": "defaultMaterial"
    }
  ],
  "samplers": [
    {
      "magFilter": 9729,
      "minFilter": 9987,
      "wrapS": 10497,
      "wrapT": 10497
    }
  ],
  "scene": 0,
  "scenes": [
    {
      "name": "Sketchfab_Scene",
      "nodes": [
        0
      ]
    }
  ],
  "textures": [
    {
      "sampler": 0,
      "source": 0
    }
  ]
}
